HIERARCHY
ROOT Hips
{
	OFFSET -14.64140 90.27770 -84.91600
	CHANNELS 6 Xposition Yposition Zposition Zrotation Xrotation Yrotation
	JOINT Spine
	{
		OFFSET 0.00000 13.20850 -1.60436
		CHANNELS 3 Zrotation Xrotation Yrotation
		JOINT Spine1
		{
			OFFSET 0.00000 8.61716 0.00000
			CHANNELS 3 Zrotation Xrotation Yrotation
			JOINT Spine2
			{
				OFFSET 0.00000 8.61717 0.00000
				CHANNELS 3 Zrotation Xrotation Yrotation
				JOINT Spine3
				{
					OFFSET 0.00000 8.61717 0.00000
					CHANNELS 3 Zrotation Xrotation Yrotation
					JOINT Neck
					{
						OFFSET 0.00000 11.07920 1.10792
						CHANNELS 3 Zrotation Xrotation Yrotation
						JOINT Neck1
						{
							OFFSET 0.00000 7.08032 0.00000
							CHANNELS 3 Zrotation Xrotation Yrotation
							JOINT Head
							{
								OFFSET 0.00000 7.08031 0.00000
								CHANNELS 3 Zrotation Xrotation Yrotation
								End site
								{
									OFFSET 0.00000 0.00000 0.00000
								}
							}
						}
					}
					JOINT RightShoulder
					{
						OFFSET -0.01000 7.91373 5.19711
						CHANNELS 3 Zrotation Xrotation Yrotation
						JOINT RightArm
						{
							OFFSET -18.41580 0.00000 0.00000
							CHANNELS 3 Zrotation Xrotation Yrotation
							JOINT RightForeArm
							{
								OFFSET -29.11090 0.00000 0.00000
								CHANNELS 3 Zrotation Xrotation Yrotation
								JOINT RightHand
								{
									OFFSET -24.65040 0.00000 0.00000
									CHANNELS 3 Zrotation Xrotation Yrotation
									JOINT RightHandThumb1
									{
										OFFSET -5.35114 -0.85590 3.97906
										CHANNELS 3 Zrotation Xrotation Yrotation
										JOINT RightHandThumb2
										{
											OFFSET -4.52789 0.00000 0.00000
											CHANNELS 3 Zrotation Xrotation Yrotation
											JOINT RightHandThumb3
											{
												OFFSET -2.46976 0.00000 0.00000
												CHANNELS 3 Zrotation Xrotation Yrotation
												End site
												{
													OFFSET 0.00000 0.00000 0.00000
												}
											}
										}
									}
									JOINT RightHandIndex1
									{
										OFFSET -14.26970 0.00000 2.88139
										CHANNELS 3 Zrotation Xrotation Yrotation
										JOINT RightHandIndex2
										{
											OFFSET -5.48836 0.00000 0.00000
											CHANNELS 3 Zrotation Xrotation Yrotation
											JOINT RightHandIndex3
											{
												OFFSET -3.01859 0.00000 0.00000
												CHANNELS 3 Zrotation Xrotation Yrotation
												End site
												{
													OFFSET 0.00000 0.00000 0.00000
												}
											}
										}
									}
									JOINT RightHandMiddle1
									{
										OFFSET -14.26970 0.00000 -0.09147
										CHANNELS 3 Zrotation Xrotation Yrotation
										JOINT RightHandMiddle2
										{
											OFFSET -6.17441 0.00000 0.00000
											CHANNELS 3 Zrotation Xrotation Yrotation
											JOINT RightHandMiddle3
											{
												OFFSET -3.56743 0.00000 0.00000
												CHANNELS 3 Zrotation Xrotation Yrotation
												End site
												{
													OFFSET 0.00000 0.00000 0.00000
												}
											}
										}
									}
									JOINT RightHandRing1
									{
										OFFSET -12.69180 0.00000 -3.06433
										CHANNELS 3 Zrotation Xrotation Yrotation
										JOINT RightHandRing2
										{
											OFFSET -5.62556 0.00000 0.00000
											CHANNELS 3 Zrotation Xrotation Yrotation
											JOINT RightHandRing3
											{
												OFFSET -3.56744 0.00000 0.00000
												CHANNELS 3 Zrotation Xrotation Yrotation
												End site
												{
													OFFSET 0.00000 0.00000 0.00000
												}
											}
										}
									}
									JOINT RightHandPinky1
									{
										OFFSET -11.11390 0.00000 -6.03719
										CHANNELS 3 Zrotation Xrotation Yrotation
										JOINT RightHandPinky2
										{
											OFFSET -4.52789 0.00000 0.00000
											CHANNELS 3 Zrotation Xrotation Yrotation
											JOINT RightHandPinky3
											{
												OFFSET -2.46976 0.00000 0.00000
												CHANNELS 3 Zrotation Xrotation Yrotation
												End site
												{
													OFFSET 0.00000 0.00000 0.00000
												}
											}
										}
									}
								}
							}
						}
					}
					JOINT LeftShoulder
					{
						OFFSET 0.01000 7.91373 5.19711
						CHANNELS 3 Zrotation Xrotation Yrotation
						JOINT LeftArm
						{
							OFFSET 18.41580 0.00000 0.00000
							CHANNELS 3 Zrotation Xrotation Yrotation
							JOINT LeftForeArm
							{
								OFFSET 29.11090 0.00000 0.00000
								CHANNELS 3 Zrotation Xrotation Yrotation
								JOINT LeftHand
								{
									OFFSET 24.65040 0.00000 0.00000
									CHANNELS 3 Zrotation Xrotation Yrotation
									JOINT LeftHandThumb1
									{
										OFFSET 5.35114 -0.85590 3.97906
										CHANNELS 3 Zrotation Xrotation Yrotation
										JOINT LeftHandThumb2
										{
											OFFSET 4.52789 0.00000 0.00000
											CHANNELS 3 Zrotation Xrotation Yrotation
											JOINT LeftHandThumb3
											{
												OFFSET 2.46977 0.00000 0.00000
												CHANNELS 3 Zrotation Xrotation Yrotation
												End site
												{
													OFFSET 0.00000 0.00000 0.00000
												}
											}
										}
									}
									JOINT LeftHandIndex1
									{
										OFFSET 14.26970 0.00000 2.88139
										CHANNELS 3 Zrotation Xrotation Yrotation
										JOINT LeftHandIndex2
										{
											OFFSET 5.48836 0.00000 0.00000
											CHANNELS 3 Zrotation Xrotation Yrotation
											JOINT LeftHandIndex3
											{
												OFFSET 3.01859 0.00000 0.00000
												CHANNELS 3 Zrotation Xrotation Yrotation
												End site
												{
													OFFSET 0.00000 0.00000 0.00000
												}
											}
										}
									}
									JOINT LeftHandMiddle1
									{
										OFFSET 14.26970 0.00000 -0.09147
										CHANNELS 3 Zrotation Xrotation Yrotation
										JOINT LeftHandMiddle2
										{
											OFFSET 6.17440 0.00000 0.00000
											CHANNELS 3 Zrotation Xrotation Yrotation
											JOINT LeftHandMiddle3
											{
												OFFSET 3.56744 0.00000 0.00000
												CHANNELS 3 Zrotation Xrotation Yrotation
												End site
												{
													OFFSET 0.00000 0.00000 0.00000
												}
											}
										}
									}
									JOINT LeftHandRing1
									{
										OFFSET 12.69180 0.00000 -3.06433
										CHANNELS 3 Zrotation Xrotation Yrotation
										JOINT LeftHandRing2
										{
											OFFSET 5.62556 0.00000 0.00000
											CHANNELS 3 Zrotation Xrotation Yrotation
											JOINT LeftHandRing3
											{
												OFFSET 3.56744 0.00000 0.00000
												CHANNELS 3 Zrotation Xrotation Yrotation
												End site
												{
													OFFSET 0.00000 0.00000 0.00000
												}
											}
										}
									}
									JOINT LeftHandPinky1
									{
										OFFSET 11.11390 0.00000 -6.03719
										CHANNELS 3 Zrotation Xrotation Yrotation
										JOINT LeftHandPinky2
										{
											OFFSET 4.52789 0.00000 0.00000
											CHANNELS 3 Zrotation Xrotation Yrotation
											JOINT LeftHandPinky3
											{
												OFFSET 2.46976 0.00000 0.00000
												CHANNELS 3 Zrotation Xrotation Yrotation
												End site
												{
													OFFSET 0.00000 0.00000 0.00000
												}
											}
										}
									}
								}
							}
						}
					}
					JOINT pCube4
					{
						OFFSET 0.00000 10.91090 1.10792
						CHANNELS 3 Zrotation Xrotation Yrotation
						End site
						{
							OFFSET 0.00000 0.00000 0.00000
						}
					}
				}
			}
		}
	}
	JOINT RightUpLeg
	{
		OFFSET -9.98441 0.00000 0.00000
		CHANNELS 3 Zrotation Xrotation Yrotation
		JOINT RightLeg
		{
			OFFSET 0.00000 -42.11790 0.00000
			CHANNELS 3 Zrotation Xrotation Yrotation
			JOINT RightFoot
			{
				OFFSET 0.00000 -45.00020 -0.00001
				CHANNELS 3 Zrotation Xrotation Yrotation
				JOINT RightForeFoot
				{
					OFFSET 0.00000 -3.74820 0.00000
					CHANNELS 3 Zrotation Xrotation Yrotation
					JOINT RightToeBase
					{
						OFFSET 0.00000 0.06325 14.43120
						CHANNELS 3 Zrotation Xrotation Yrotation
						End site
						{
							OFFSET 0.00000 0.00000 0.00000
						}
					}
				}
			}
		}
	}
	JOINT LeftUpLeg
	{
		OFFSET 9.98441 0.00000 0.00000
		CHANNELS 3 Zrotation Xrotation Yrotation
		JOINT LeftLeg
		{
			OFFSET 0.00000 -42.11800 0.00000
			CHANNELS 3 Zrotation Xrotation Yrotation
			JOINT LeftFoot
			{
				OFFSET 0.00000 -45.00070 0.00000
				CHANNELS 3 Zrotation Xrotation Yrotation
				JOINT LeftForeFoot
				{
					OFFSET 0.00000 -3.74824 0.00000
					CHANNELS 3 Zrotation Xrotation Yrotation
					JOINT LeftToeBase
					{
						OFFSET 0.00000 0.06325 14.43110
						CHANNELS 3 Zrotation Xrotation Yrotation
						End site
						{
							OFFSET 0.00000 0.00000 0.00000
						}
					}
				}
			}
		}
	}
}
MOTION
Frames: 4
Frame Time: 0.050000
0.035801473477530696 -0.00019803243125551134 0.002320103415589351 -0.021699108673549655 0.012859175528862744 -0.0006699725886612289 -0.05435592732207063 3.084475684456449 -1.3135825453426238 -0.5377204241274277 3.4249756016973123 0.3317000907397951 -0.45859678114374103 -1.2060426387774734 -1.6819744043507863 -0.8363141225625215 -0.6827765702579645 -0.7172349075280338 -1.4561364346080468 10.9858548985938 2.3401913930009184 0.09135975248740245 -0.55131346552366 5.718927771788958 -0.5426611335725259 -15.509954602023164 0.5080449355198782 -1.8132154215718692 1.3935752366222285 -12.839212266283637 70.55464534601096 5.777314042392322 14.313244464085214 -0.8860545484925298 8.66960031457803 83.3667534658608 21.251807773127087 -0.4005848761834822 -2.6783857386347427 4.553701287113379 -0.11923721360524857 -1.6122230508745334 -0.018259423592692208 -0.007605824370888165 -56.264215223875695 -0.04488299729464359 -0.006309948326557352 -56.280380895984294 -38.78709864662144 0.021443812311885094 0.018808047104010534 0.04412809661838922 -0.027937039689146518 -0.03143255310816169 -0.04980889160627484 0.006253333568198675 0.017746023786182594 -36.72663382292915 -0.031031436532429596 -0.03360362624609626 -0.011861189673146106 0.038849406697217 0.015220946648836444 -0.004617891413752982 0.010400377210566794 0.03271034615812071 -19.715015409800003 0.017209026633483972 -0.03675447570738419 0.025843260688795527 -0.03358837717710191 0.04731126000349797 0.009074553802056103 -0.04231518773782288 0.04358690863511606 24.054279469084268 -0.022187605958641134 -0.035185515587945124 28.84943495596368 0.03740787807235625 0.0025606672946812473 28.83653592672002 -0.029761249116945884 -0.005820527477900039 7.934729533418795 2.061788857346239 11.196777461467834 -63.444864456699 13.381013322715582 -36.69260126612216 11.909129769887807 -7.899259119036941 -70.29567450606206 -19.451640103572725 -0.13892387088315886 2.1766565708931993 -0.4427436548680543 0.1149183435164127 -8.10646156002779 -0.004664501376098535 0.015336246680727566 44.52146465253243 -0.026213974112738743 -0.009021977845306721 44.52938339092851 12.462415018444386 0.002687364212987525 -0.00160705245794534 -0.021193582982586768 0.03571905769043364 -0.03625360483678492 0.025735679517081094 -0.0052773724417813205 0.008334311547028411 11.117913500274113 -0.021725736426595834 0.010300487272771287 -0.045894867789698354 0.022578622957161572 -0.022991204215891625 0.040816079253744454 -0.04956893900716719 -0.03930210463061665 4.7431571314851775 -0.04100035102876973 0.0321522785337377 -0.016155580011642853 -0.03594085649954229 -0.014719993122981797 0.016173067593346135 -0.04185729988850904 -0.016891620265924775 -5.6062208060162275 -0.0382258299566748 -0.027308028695785788 -6.687269073530973 0.021364109443848787 0.01202503718768365 -6.7172089633977965 0.001221613129714641 0.03006781405430422 0.03184627580184454 -0.0020426577179863104 0.010702506864010426 8.06292175159804 3.490223263987546 -19.17867932478578 0.001103886790532003 10.381561242502798 0.00905103524111776 -5.622199636596416 -15.709559455802777 3.14827810525941 -0.029648004486281552 0.005985483146085031 0.027771070873896513 -0.04600623718241245 4.649579862386137 -0.013043392857783418 12.43566870278427 -8.231826336866867 6.833500001576863 0.049258179397762454 46.38992842463765 -0.02395789199766722 -4.311275603523716 -14.786552808845265 -3.8462355114097666 0.017665646559064833 0.011065271870361618 0.006001793868969694 -0.01138004465402991 -10.754409323637365 0.03760330861340273 
-0.02499562429004728 0.03285541099854455 -0.010863569734222053 0.03546168266849933 0.016963239311014452 0.028103840023402715 -0.18345167364338294 3.290433112336286 -1.284217487076795 -0.4663365093619317 3.3433662893626406 0.303282509790919 -0.5302944371434651 -1.1864492679943002 -1.74205447194434 -0.8849424008066433 -0.5747720778772888 -0.8027580988307781 -1.5411039774374495 10.663605793781349 2.452317778177428 0.056574663575456444 -0.6511462603034718 5.9297770602419755 -0.5916414871025881 -15.627755129437142 0.5587787369681478 -1.6652385028786691 1.4107259999564898 -12.70209798514487 70.74786716632516 5.022930644950729 13.939689068564077 -1.456096081563674 8.632749795715549 82.5676605287378 20.67012044297553 -0.37948956252776295 -2.4330852184404224 4.517281417654224 -0.10906286858953017 -1.5503253961101544 -0.004447380436230609 0.03324141826944177 -56.201616439255346 -0.008343049665138201 0.015261715224070011 -56.19649417229405 -38.79688984271049 0.03418142043053267 0.0345528011878135 -0.04790955641994667 0.008240545453943685 -0.043382694951227325 -0.006243277380995832 0.043562946193232865 -0.018175733295513124 -36.67586591012584 -0.0365138739137546 0.0050739561675851655 -0.026829193189025293 0.003951378789710179 0.023189827864505328 -0.03430686354716825 0.036116744294115675 -0.02929686268305735 -19.764949422104582 0.02666844987179854 -0.014818290746578311 -0.04102073074194103 -0.04971195270990896 0.018806284661216494 0.04005502980443749 0.00275612152218029 0.04129576107551142 24.01705576918487 -0.019399870148253572 -0.02279900275432751 28.833533293296718 0.01642754480178244 -0.03946212079430818 28.828128184154597 -0.037020829306278556 0.019802939510511056 7.593732651050729 2.056567597642516 10.999403613346113 -63.39906736179553 14.150090819144387 -36.02231666533593 12.814789891212701 -8.603554220563877 -69.75296695603828 -18.45991539106979 -0.2784851860887672 2.5412752718465876 -0.5152939484768364 0.06743359397327968 -8.154070783127361 0.005545981086930789 0.04109933641465224 44.58559061432589 0.006317661326866125 -0.03368284782678326 44.59177947318158 12.487093017815173 -0.003213619299342876 -0.004670957217931053 0.018853501767412795 -0.010206499739315082 0.017092004347637958 0.03326818808818655 -0.04439186990979633 0.015313311069724566 11.08454429383333 -0.031038987466986273 -0.013044336819210937 0.019601112221184654 -0.04506367412078816 0.02221652933037709 0.007214378069071305 9.550249820870616e-05 -0.0187660483320793 4.790026615890729 -0.03381137215622218 0.03645499874591475 0.006747172667454896 0.007707847616052017 -0.009506081818360613 -0.016686091958846235 0.011499938933907937 -0.0011600177670682396 -5.596783522688727 0.02513889207069319 0.009629556074824474 -6.723446341811777 -0.02622777106026404 0.038531778963841495 -6.735075378143878 -0.006213567227794229 0.0437769524618505 0.018054396765694727 -0.018888195168136418 -0.033194760129220756 8.089082914182288 3.5157785651234765 -19.25931164792993 0.017242860230278493 10.407138004969465 -0.0022712343431554836 -5.596634630268549 -15.694918047522137 3.190049639592936 -0.0072261991428072105 -0.04636944980188101 0.002053461631765031 0.04545085280238709 4.729783654756667 -0.002786453777315824 12.475622998861034 -8.273998953783774 6.873294631514849 -0.00087945735322219 46.41938117065989 -0.04753794341334124 -4.3098382851695405 -14.745982127324204 -3.8810741246577862 0.019240443722847837 -0.04173329340139435 0.005019300775482857 0.022722421552569445 -10.704908716618698 -0.04363888624239033 
-0.022579141950396314 0.04160421733224066 0.01468850937117797 -0.005636418569049169 -0.019309688092755545 -0.006946093594948511 -0.23097573355724044 3.2874210883499977 -1.2921279344887495 -0.5073936319991837 3.3544936262736655 0.3212338806841399 -0.4830797549846529 -1.1620191533759114 -1.83710853498689 -0.9154354888632754 -0.5933054787659399 -0.8112353762396494 -1.5046848627017553 10.593518968094779 2.558812998933196 0.09222562013832358 -0.7788222279487413 6.324519298643505 -0.6863779216383358 -15.753110770704303 0.5048018925125473 -1.596137232236435 1.328319993816224 -12.66018849975112 70.74852821398969 4.001590167265879 13.532965150339328 -2.251732024302167 8.675347210372086 81.18874074132661 20.907550818846754 -0.366730839957466 -2.0986081028272627 4.503407814156389 -0.13344317966319985 -1.566098924857045 -0.006985105775863526 -0.023688596562566742 -56.226360312962264 0.040182114311018195 0.009620380519880492 -56.24593212990644 -38.81864358534558 -0.005368209291331943 -0.009523788819504525 0.0085351565557092 0.041215639491530155 -0.04240082575004602 0.02936151801020551 -0.025118714122816774 0.018792111864799718 -36.73666505547412 0.004540663644841849 0.006139040299609476 0.02537722643575463 0.033929133750209485 -0.0316209819966451 0.026951791022917244 -0.04991353225952568 0.021270931030187273 -19.775105218943146 -0.017529499467799005 0.0028114767285141837 -0.009789235055837512 -0.009080710722859889 -0.018791098322766805 0.029053699183725783 -0.0029379431234182016 -0.009867569488733283 24.054669134746465 -0.02350956568404862 -0.049501608605092666 28.83139445293598 -0.009819631645567577 -0.0026229073662739012 28.83517769609345 0.011086337293486834 0.003304322612721408 7.451880308684914 1.9626292208612355 10.871986584031143 -63.985734523717795 14.381398190529874 -35.25071333654053 11.600562078075633 -8.038790607544485 -68.1806452034108 -18.627728356191554 -0.2561357353499519 2.818828440617934 -0.4348334818659471 0.04213311362648643 -8.15099996067342 0.043289360676859776 -0.048730610285553894 44.524598543716 0.002658784958519365 -0.011664439988688373 44.585106094288726 12.47544967369032 0.032293134483229964 0.03464149666250508 0.03602309801998656 0.023685413674420345 -0.0017847725851806012 0.029476822806378884 -0.021208115069208357 0.03601238497509324 11.084316887073722 -0.020904824049818915 0.04338725550429337 0.025643679070619648 0.010818231688324739 -0.009537821634251435 -0.009569434224210548 -0.025905695103567068 0.001533676386896057 4.75234088121743 -0.03498461566201756 0.029116752380027762 0.04884828071706932 0.04095687580180374 -0.004000710700475583 -0.011293047139009103 -0.01701065593001247 -0.00564064668639489 -5.562896594294662 0.011230817502651742 -0.03596767372480513 -6.7273045832166085 0.015544905386898343 -0.010831274785425967 -6.7542008383699015 -0.017754006186620114 0.04903469767416385 0.018570848926702084 0.010062262978234985 0.005233459651123455 8.081530762853328 3.5265106474908077 -19.264769088113518 0.03774441424864373 10.3843272948059 0.023808986040498817 -5.59014543917317 -15.650880483261044 3.199819602092313 -0.01839900999469294 0.00878064258029772 0.007685092634162964 0.048914597185734224 4.681623978675681 0.04375674867925051 12.438102058191452 -8.275773290129928 6.840244601011574 0.018831853206328034 46.39042529382626 0.02592079078100238 -4.296693269102479 -14.710966110224525 -3.882326816741078 -0.011287108072733946 -0.01701127904271796 -0.03633390567062865 0.028477124795752973 -10.702671206169061 -0.0147533288769344 
-0.005079383936443916 -0.005802913219247926 0.04174186589183473 -0.02661831047516089 -0.01557298471701746 0.015115444308779747 -0.2907956696460055 3.44124597578254 -1.2458010534755701 -0.5367781409694405 3.3251592102977776 0.253610903482336 -0.49838150408154464 -1.1849251071944642 -1.8999211790873929 -0.9650933929868265 -0.6243319764252749 -0.7668944601530294 -1.574260807039708 10.551581981208466 2.6335605362572303 0.03816595291491313 -0.7991706850984959 6.625299318210294 -0.6649341583961074 -15.848527554700418 0.6038611344423666 -1.79660872723279 1.3849416522990816 -12.712527535937815 70.45956102061265 1.4153968694664063 13.744943861859916 -3.762451175920385 8.569045059042944 79.4266945313921 21.223194000572818 -0.39410486538455003 -1.7524214339414634 4.5387839193800215 -0.15612406886214508 -1.5437786947613552 0.019022563548949472 0.04588828270780741 -56.25812066690199 0.01063544104597493 0.0035858017121546304 -56.19352578331706 -38.79174708247807 -0.01010447771277643 0.01789016304508841 -0.004363059235627362 -0.0027584051742306896 -0.04874176256403259 -0.04025135774899209 -0.030874299196416103 0.028682260840519194 -36.66023614485446 0.005142183039463428 -0.015797684631177686 -0.02116303537246552 -0.006217883982200992 -0.013007371726824956 -0.009144083609734056 -0.048589105621304376 0.02277190228019746 -19.780295743449297 -0.012954106379243685 0.015187879054285876 0.019374265765833416 0.011743998119909681 0.013114296170490423 0.02819664654079242 0.006119480630266443 0.028040602045457226 24.049574316826252 -0.038731992459286706 0.017741455465589934 28.903632498578798 0.004811483646678297 -0.03210746769772477 28.844857996159384 -0.009038428455926143 -0.03987429713207606 7.482296102577574 1.9498594451872686 10.821667999618583 -64.47931137741656 13.658047246043125 -35.12440098420412 10.231745069486777 -7.159507823188413 -66.5484587291888 -18.721775127891476 0.05840208718240228 2.806950918140549 -0.4866270789858508 0.08907645895465462 -8.134854956288772 0.03889466894697318 -0.044299777260699 44.57569213205295 -0.0009164220147109734 0.03537426989169022 44.55537792446516 12.45048359288664 -0.023465644915369607 -0.03552170156205944 0.016572850435291157 0.0364790925125944 -0.020893227147628365 -0.04035217064423817 0.0037303904278661953 -0.03209176351920526 11.100516337793264 -0.0019994858945040776 0.032412011852294906 -0.022192546860780406 0.0010138306701806075 -0.025810207890234138 0.009548193333937123 -0.024159970718280115 -0.04245282070482594 4.737008589731176 -0.01073071058841036 -0.02954272902375108 -0.04953693830724132 -0.0075842829299402476 -0.00529846665116486 0.036618149391843866 0.006997091997541143 0.007502741159789021 -5.6413577834322775 0.0336332542416903 -0.0027933991179652233 -6.721576757739034 0.04197353415834354 -0.03013465400319303 -6.710989884239285 0.03908664776913361 -0.04014271708143202 -0.03839952395509684 0.03509313402455664 0.039675611504290935 8.040104321141891 3.4859765544093824 -19.261373882360473 -0.04840728214845056 10.403255999200713 -0.0331883035117216 -5.597927245673368 -15.659387094135019 3.1708275678629056 0.024149886234918715 0.016567352662253648 -0.011107058243867467 -0.045252560725911016 4.71862680656508 -0.012097707897415877 12.448393032892353 -8.213679685353497 6.88135735366572 -0.015392805292402665 46.40661884321973 0.009084275161031368 -4.29654868998581 -14.710213726603149 -3.843240305058835 0.002391771367795201 0.02888983058868209 0.026154045157488832 -0.004841879683576608 -10.735527158206079 0.019514462063300476 
